<mxfile host="app.diagrams.net" agent="Mozilla/5.0 (Windows NT 10.0; Win64; x64) AppleWebKit/537.36 (KHTML, like Gecko) Chrome/134.0.0.0 Safari/537.36" version="26.2.3">
  <diagram name="PÃ¡gina-1" id="jtlJ-4wsGC8OoZ16ufVr">
    <mxGraphModel dx="583" dy="320" grid="1" gridSize="10" guides="1" tooltips="1" connect="1" arrows="1" fold="1" page="1" pageScale="1" pageWidth="827" pageHeight="1169" math="0" shadow="0">
      <root>
        <mxCell id="0" />
        <mxCell id="1" parent="0" />
        <mxCell id="pLzm11BmAwQGTYK_m34K-6" value="&#xa;&lt;code&gt;&lt;span class=&quot;hljs-keyword&quot;&gt;module&lt;/span&gt;&lt;span class=&quot;&quot;&gt; top&lt;/span&gt;&lt;/code&gt;&#xa;&#xa;" style="text;html=1;align=center;verticalAlign=middle;whiteSpace=wrap;rounded=0;" vertex="1" parent="1">
          <mxGeometry x="80" y="130" width="100" height="30" as="geometry" />
        </mxCell>
        <mxCell id="pLzm11BmAwQGTYK_m34K-16" value="" style="group;flipH=1;" vertex="1" connectable="0" parent="1">
          <mxGeometry x="440" y="190" width="110" height="228" as="geometry" />
        </mxCell>
        <mxCell id="pLzm11BmAwQGTYK_m34K-13" value="" style="ellipse;whiteSpace=wrap;html=1;aspect=fixed;fillColor=#000000;" vertex="1" parent="pLzm11BmAwQGTYK_m34K-16">
          <mxGeometry x="67.22222222222223" y="30" width="10" height="10" as="geometry" />
        </mxCell>
        <mxCell id="pLzm11BmAwQGTYK_m34K-14" value="&lt;code&gt;&lt;span class=&quot;&quot;&gt;&lt;font style=&quot;font-size: 10px;&quot;&gt;WriteData&lt;/font&gt;&lt;/span&gt;&lt;/code&gt;&lt;div&gt;&lt;code&gt;&lt;span class=&quot;&quot;&gt;&lt;font size=&quot;3&quot;&gt;&lt;span class=&quot;&quot;&gt;[&lt;/span&gt;&lt;span class=&quot;hljs-number&quot;&gt;31&lt;/span&gt;&lt;span class=&quot;&quot;&gt;:&lt;/span&gt;&lt;span class=&quot;hljs-number&quot;&gt;0&lt;/span&gt;&lt;span class=&quot;&quot;&gt;]&lt;/span&gt;&lt;/font&gt;&lt;/span&gt;&lt;/code&gt;&lt;/div&gt;" style="text;html=1;align=center;verticalAlign=middle;whiteSpace=wrap;rounded=0;" vertex="1" parent="pLzm11BmAwQGTYK_m34K-16">
          <mxGeometry x="36.66666666666667" width="73.33333333333334" height="30" as="geometry" />
        </mxCell>
        <mxCell id="pLzm11BmAwQGTYK_m34K-1" value="" style="rounded=0;whiteSpace=wrap;html=1;" vertex="1" parent="pLzm11BmAwQGTYK_m34K-16">
          <mxGeometry x="-350" y="-42" width="390" height="270" as="geometry" />
        </mxCell>
        <mxCell id="pLzm11BmAwQGTYK_m34K-35" value="" style="group;flipH=1;" vertex="1" connectable="0" parent="pLzm11BmAwQGTYK_m34K-16">
          <mxGeometry x="-370" y="-22" width="116.10000000000002" height="40" as="geometry" />
        </mxCell>
        <mxCell id="pLzm11BmAwQGTYK_m34K-36" value="&lt;span style=&quot;font-family: monospace;&quot;&gt;&lt;font style=&quot;font-size: 5px; color: rgb(255, 51, 153);&quot;&gt;Instr&lt;/font&gt;&lt;/span&gt;" style="ellipse;whiteSpace=wrap;html=1;aspect=fixed;fillColor=#000000;" vertex="1" parent="pLzm11BmAwQGTYK_m34K-35">
          <mxGeometry x="66.44" width="10" height="10" as="geometry" />
        </mxCell>
        <mxCell id="pLzm11BmAwQGTYK_m34K-43" value="&lt;span style=&quot;font-family: monospace;&quot;&gt;&lt;font style=&quot;font-size: 5px; color: rgb(255, 51, 153);&quot;&gt;ReadData&lt;/font&gt;&lt;/span&gt;" style="ellipse;whiteSpace=wrap;html=1;aspect=fixed;fillColor=#000000;" vertex="1" parent="pLzm11BmAwQGTYK_m34K-16">
          <mxGeometry x="-250.33333333333331" y="-22" width="10" height="10" as="geometry" />
        </mxCell>
        <mxCell id="pLzm11BmAwQGTYK_m34K-27" value="" style="group;flipH=1;" vertex="1" connectable="0" parent="pLzm11BmAwQGTYK_m34K-16">
          <mxGeometry x="-370" y="-22" width="110" height="40" as="geometry" />
        </mxCell>
        <mxCell id="pLzm11BmAwQGTYK_m34K-28" value="&lt;font style=&quot;font-size: 5px; color: rgb(255, 51, 153);&quot;&gt;PC&lt;/font&gt;" style="ellipse;whiteSpace=wrap;html=1;aspect=fixed;fillColor=#000000;" vertex="1" parent="pLzm11BmAwQGTYK_m34K-27">
          <mxGeometry x="31.663333333333355" width="10" height="10" as="geometry" />
        </mxCell>
        <mxCell id="pLzm11BmAwQGTYK_m34K-25" value="" style="group" vertex="1" connectable="0" parent="pLzm11BmAwQGTYK_m34K-27">
          <mxGeometry x="-30" y="-18" width="90" height="40" as="geometry" />
        </mxCell>
        <mxCell id="pLzm11BmAwQGTYK_m34K-7" value="" style="ellipse;whiteSpace=wrap;html=1;aspect=fixed;fillColor=#000000;" vertex="1" parent="pLzm11BmAwQGTYK_m34K-25">
          <mxGeometry x="25" y="28" width="10" height="10" as="geometry" />
        </mxCell>
        <mxCell id="pLzm11BmAwQGTYK_m34K-8" value="clk" style="text;html=1;align=center;verticalAlign=middle;whiteSpace=wrap;rounded=0;" vertex="1" parent="pLzm11BmAwQGTYK_m34K-25">
          <mxGeometry width="60" height="30" as="geometry" />
        </mxCell>
        <mxCell id="pLzm11BmAwQGTYK_m34K-44" value="arm" style="rounded=0;whiteSpace=wrap;html=1;fontFamily=Helvetica;fontSize=11;fontColor=default;labelBackgroundColor=default;" vertex="1" parent="pLzm11BmAwQGTYK_m34K-16">
          <mxGeometry x="-208.67" y="15" width="80" height="60" as="geometry" />
        </mxCell>
        <mxCell id="pLzm11BmAwQGTYK_m34K-15" value="" style="endArrow=none;html=1;rounded=0;exitX=1;exitY=0.25;exitDx=0;exitDy=0;" edge="1" parent="pLzm11BmAwQGTYK_m34K-16" target="pLzm11BmAwQGTYK_m34K-13" source="pLzm11BmAwQGTYK_m34K-44">
          <mxGeometry width="50" height="50" relative="1" as="geometry">
            <mxPoint y="35" as="sourcePoint" />
            <mxPoint y="57.64999999999998" as="targetPoint" />
          </mxGeometry>
        </mxCell>
        <mxCell id="pLzm11BmAwQGTYK_m34K-73" value="" style="endArrow=none;html=1;rounded=0;strokeColor=default;align=center;verticalAlign=middle;fontFamily=Helvetica;fontSize=11;fontColor=default;labelBackgroundColor=default;edgeStyle=none;entryX=0.041;entryY=0.98;entryDx=0;entryDy=0;entryPerimeter=0;exitX=0.25;exitY=0;exitDx=0;exitDy=0;" edge="1" parent="pLzm11BmAwQGTYK_m34K-16" source="pLzm11BmAwQGTYK_m34K-44">
          <mxGeometry width="50" height="50" relative="1" as="geometry">
            <mxPoint x="-160" y="130" as="sourcePoint" />
            <mxPoint x="-332.21999999999997" y="-12.600000000000023" as="targetPoint" />
          </mxGeometry>
        </mxCell>
        <mxCell id="pLzm11BmAwQGTYK_m34K-74" value="" style="endArrow=none;html=1;rounded=0;strokeColor=default;align=center;verticalAlign=middle;fontFamily=Helvetica;fontSize=11;fontColor=default;labelBackgroundColor=default;edgeStyle=none;entryX=0.5;entryY=1;entryDx=0;entryDy=0;exitX=0.5;exitY=0;exitDx=0;exitDy=0;" edge="1" parent="pLzm11BmAwQGTYK_m34K-16" source="pLzm11BmAwQGTYK_m34K-44">
          <mxGeometry width="50" height="50" relative="1" as="geometry">
            <mxPoint x="-160" y="130" as="sourcePoint" />
            <mxPoint x="-298.55999999999995" y="-12" as="targetPoint" />
          </mxGeometry>
        </mxCell>
        <mxCell id="pLzm11BmAwQGTYK_m34K-75" value="" style="endArrow=none;html=1;rounded=0;strokeColor=default;align=center;verticalAlign=middle;fontFamily=Helvetica;fontSize=11;fontColor=default;labelBackgroundColor=default;edgeStyle=none;entryX=0.5;entryY=1;entryDx=0;entryDy=0;exitX=0.75;exitY=0;exitDx=0;exitDy=0;" edge="1" parent="pLzm11BmAwQGTYK_m34K-16" source="pLzm11BmAwQGTYK_m34K-44">
          <mxGeometry width="50" height="50" relative="1" as="geometry">
            <mxPoint x="-160" y="130" as="sourcePoint" />
            <mxPoint x="-245.33333333333337" y="-12" as="targetPoint" />
          </mxGeometry>
        </mxCell>
        <mxCell id="pLzm11BmAwQGTYK_m34K-69" value="" style="endArrow=none;html=1;rounded=0;strokeColor=default;align=center;verticalAlign=middle;fontFamily=Helvetica;fontSize=11;fontColor=default;labelBackgroundColor=default;edgeStyle=none;entryX=0;entryY=0.25;entryDx=0;entryDy=0;" edge="1" parent="pLzm11BmAwQGTYK_m34K-16" source="pLzm11BmAwQGTYK_m34K-7" target="pLzm11BmAwQGTYK_m34K-44">
          <mxGeometry width="50" height="50" relative="1" as="geometry">
            <mxPoint x="-200" y="110" as="sourcePoint" />
            <mxPoint x="-150" y="60" as="targetPoint" />
          </mxGeometry>
        </mxCell>
        <mxCell id="pLzm11BmAwQGTYK_m34K-9" value="" style="ellipse;whiteSpace=wrap;html=1;aspect=fixed;fillColor=#000000;" vertex="1" parent="1">
          <mxGeometry x="65" y="210" width="10" height="10" as="geometry" />
        </mxCell>
        <mxCell id="pLzm11BmAwQGTYK_m34K-10" value="reset" style="text;html=1;align=center;verticalAlign=middle;whiteSpace=wrap;rounded=0;" vertex="1" parent="1">
          <mxGeometry x="40" y="190" width="60" height="30" as="geometry" />
        </mxCell>
        <mxCell id="pLzm11BmAwQGTYK_m34K-12" value="" style="endArrow=none;html=1;rounded=0;entryX=1;entryY=0.5;entryDx=0;entryDy=0;exitX=0;exitY=0.75;exitDx=0;exitDy=0;" edge="1" parent="1" source="pLzm11BmAwQGTYK_m34K-44" target="pLzm11BmAwQGTYK_m34K-9">
          <mxGeometry width="50" height="50" relative="1" as="geometry">
            <mxPoint x="230" y="247" as="sourcePoint" />
            <mxPoint x="75" y="236.92000000000002" as="targetPoint" />
          </mxGeometry>
        </mxCell>
        <mxCell id="pLzm11BmAwQGTYK_m34K-18" value="" style="ellipse;whiteSpace=wrap;html=1;aspect=fixed;fillColor=#000000;" vertex="1" parent="1">
          <mxGeometry x="507.22222222222223" y="270" width="10" height="10" as="geometry" />
        </mxCell>
        <mxCell id="pLzm11BmAwQGTYK_m34K-19" value="&lt;code&gt;DataAdr&lt;/code&gt;&lt;br&gt;&lt;div&gt;&lt;code&gt;&lt;span class=&quot;&quot;&gt;&lt;font size=&quot;3&quot;&gt;&lt;span class=&quot;&quot;&gt;[&lt;/span&gt;&lt;span class=&quot;hljs-number&quot;&gt;31&lt;/span&gt;&lt;span class=&quot;&quot;&gt;:&lt;/span&gt;&lt;span class=&quot;hljs-number&quot;&gt;0&lt;/span&gt;&lt;span class=&quot;&quot;&gt;]&lt;/span&gt;&lt;/font&gt;&lt;/span&gt;&lt;/code&gt;&lt;/div&gt;" style="text;html=1;align=center;verticalAlign=middle;whiteSpace=wrap;rounded=0;" vertex="1" parent="1">
          <mxGeometry x="476.6666666666667" y="240" width="73.33333333333334" height="30" as="geometry" />
        </mxCell>
        <mxCell id="pLzm11BmAwQGTYK_m34K-20" value="" style="endArrow=none;html=1;rounded=0;exitX=1;exitY=0.5;exitDx=0;exitDy=0;" edge="1" parent="1" target="pLzm11BmAwQGTYK_m34K-18" source="pLzm11BmAwQGTYK_m34K-44">
          <mxGeometry width="50" height="50" relative="1" as="geometry">
            <mxPoint x="440" y="275" as="sourcePoint" />
            <mxPoint x="440" y="297.65" as="targetPoint" />
          </mxGeometry>
        </mxCell>
        <mxCell id="pLzm11BmAwQGTYK_m34K-22" value="" style="ellipse;whiteSpace=wrap;html=1;aspect=fixed;fillColor=#000000;" vertex="1" parent="1">
          <mxGeometry x="507.22222222222223" y="330" width="10" height="10" as="geometry" />
        </mxCell>
        <mxCell id="pLzm11BmAwQGTYK_m34K-23" value="&lt;code&gt;MemWrite&lt;/code&gt;" style="text;html=1;align=center;verticalAlign=middle;whiteSpace=wrap;rounded=0;" vertex="1" parent="1">
          <mxGeometry x="476.6666666666667" y="300" width="73.33333333333334" height="30" as="geometry" />
        </mxCell>
        <mxCell id="pLzm11BmAwQGTYK_m34K-24" value="" style="endArrow=none;html=1;rounded=0;exitX=1;exitY=0.75;exitDx=0;exitDy=0;" edge="1" parent="1" target="pLzm11BmAwQGTYK_m34K-22" source="pLzm11BmAwQGTYK_m34K-44">
          <mxGeometry width="50" height="50" relative="1" as="geometry">
            <mxPoint x="440" y="335" as="sourcePoint" />
            <mxPoint x="440" y="357.65" as="targetPoint" />
          </mxGeometry>
        </mxCell>
        <mxCell id="pLzm11BmAwQGTYK_m34K-59" value="&lt;div style=&quot;text-align: center;&quot;&gt;&lt;span style=&quot;background-color: light-dark(#ffffff, var(--ge-dark-color, #121212)); color: light-dark(rgb(0, 0, 0), rgb(255, 255, 255));&quot;&gt;imem&lt;/span&gt;&lt;/div&gt;&lt;div&gt;&lt;/div&gt;" style="rounded=0;whiteSpace=wrap;html=1;fontFamily=Helvetica;fontSize=11;fontColor=default;labelBackgroundColor=default;align=left;" vertex="1" parent="1">
          <mxGeometry x="231.32999999999998" y="279" width="80" height="60" as="geometry" />
        </mxCell>
        <mxCell id="pLzm11BmAwQGTYK_m34K-61" value="dmem" style="rounded=0;whiteSpace=wrap;html=1;fontFamily=Helvetica;fontSize=11;fontColor=default;labelBackgroundColor=default;" vertex="1" parent="1">
          <mxGeometry x="231.33" y="350" width="80" height="60" as="geometry" />
        </mxCell>
      </root>
    </mxGraphModel>
  </diagram>
</mxfile>
